<svg xmlns="http://www.w3.org/2000/svg" aria-hidden="true" style="position:absolute;width:0;height:0;overflow:hidden"><defs><symbol id="icon-basket" viewBox="0 0 32 32"><path d="M16 2.667A5.333 5.333 0 0 1 21.333 8h2.713a2.667 2.667 0 0 1 2.665 2.567v.005l.571 16 .002.095a2.667 2.667 0 0 1-2.666 2.667H7.381a2.667 2.667 0 0 1-2.666-2.667l.002-.099v.005l.571-16a2.668 2.668 0 0 1 2.665-2.572h2.713a5.333 5.333 0 0 1 5.333-5.333zm-5.333 8H7.954l-.572 16h17.237l-.572-16h-2.713V12a1.333 1.333 0 0 1-2.656.163l-.001-.006-.009-.156v-1.333h-5.333v1.333a1.333 1.333 0 0 1-2.656.163l-.001-.006-.009-.156v-1.333zM16 5.333h-.001a2.668 2.668 0 0 0-2.659 2.458l-.001.009-.007.2h5.333a2.667 2.667 0 0 0-2.667-2.667z"/></symbol></defs></svg>